<?xml version="1.0" standalone="no"?><!DOCTYPE svg PUBLIC "-//W3C//DTD SVG 1.1//EN" "http://www.w3.org/Graphics/SVG/1.1/DTD/svg11.dtd"><svg width="100%" height="100%" viewBox="0 0 1526 469" version="1.1" xmlns="http://www.w3.org/2000/svg" xmlns:xlink="http://www.w3.org/1999/xlink" xml:space="preserve" style="fill-rule:evenodd;clip-rule:evenodd;stroke-linejoin:round;stroke-miterlimit:1.41421;"><g id="Foundation Logo"><path d="M1490.09,137.108c0.422,-7.835 -1.119,-13.432 -4.862,-17.945c-1.817,-1.872 -4.826,-2.973 -8.202,-2.973c-7.083,0 -10.128,4.863 -11.596,10.441c-1.175,3.027 -1.468,6.385 -1.175,10.477l0,102.751c-0.293,7.854 1.597,13.45 4.918,17.56c1.871,1.89 4.495,2.972 7.853,2.972c7.083,0 10.477,-4.477 11.945,-10.091c1.119,-2.936 1.541,-6.349 1.119,-10.441l0,-102.751ZM1525.59,240.979c-1.138,19.798 -7.083,33.632 -20.165,44.476c-6.716,5.615 -16.055,8.221 -28.404,8.221c-24.293,0 -36.257,-13.487 -42.238,-26.918c-3.34,-7.835 -5.578,-16.789 -5.982,-26.899l0,-102.751c1.119,-19.817 7.119,-34.349 20.165,-45.541c6.367,-5.652 15.743,-8.257 28.055,-8.257c24.238,0 36.624,13.449 42.587,26.55c3.339,7.835 5.633,16.459 5.982,26.165l0,104.954ZM1402.38,86.319l0,209.577c0,10.477 0,26.899 -5.211,40.367c-5.211,13.816 -16.825,24.642 -38.11,24.642c-5.945,0 -10.091,-0.367 -12.679,-1.12c-1.522,-0.348 -2.642,-0.77 -3.761,-1.101l0,-34.733c1.119,0.33 2.239,0.33 3.376,0.715c2.606,0.367 4.862,0.753 7.119,0.753c6.294,0 9.34,-5.23 10.808,-11.578c0.33,-2.973 0.734,-6.349 0.734,-9.688l0,-8.588l0,-209.246l37.724,0ZM1364.66,16.081l37.724,0l0,37.724l-37.724,0l0,-37.724ZM1304.05,137.108c0.386,-7.835 -1.156,-13.432 -4.844,-17.945c-1.908,-1.872 -4.899,-2.973 -8.256,-2.973c-7.12,0 -10.129,4.863 -11.56,10.441c-1.156,3.027 -1.541,6.385 -1.156,10.477l0,102.751c-0.385,7.854 1.523,13.45 4.881,17.56c1.853,1.89 4.458,2.972 7.835,2.972c7.119,0 10.458,-4.477 11.944,-10.091c1.156,-2.936 1.542,-6.349 1.156,-10.441l0,-102.751ZM1339.5,240.979c-1.064,19.798 -7.101,33.632 -20.165,44.476c-6.716,5.615 -16.074,8.221 -28.385,8.221c-24.276,0 -36.22,-13.487 -42.22,-26.918c-3.377,-7.835 -5.633,-16.789 -5.964,-26.899l0,-102.751c1.156,-19.817 7.083,-34.349 20.147,-45.541c6.385,-5.652 15.688,-8.257 28.037,-8.257c24.293,0 36.642,13.449 42.605,26.55c3.339,7.835 5.596,16.459 5.945,26.165l0,104.954ZM1147.85,250.3c13.817,0 21.633,-1.505 25.725,-14.881c1.872,-6.349 3.413,-16.11 3.761,-29.211c0.404,-13.027 0.404,-30.624 0.404,-53.045c0,-22.404 0,-39.945 -0.404,-53.046c-0.348,-12.679 -1.889,-22.367 -3.761,-29.138c-4.092,-13.045 -11.908,-14.55 -25.725,-14.55l0,193.871ZM1107.46,290.685l0,-274.604l31.798,0c37.321,0 57.505,7.449 68.348,28.366c10.441,20.936 11.964,55.303 11.964,109.138c0,53.779 -1.523,87.761 -11.964,108.715c-10.843,20.899 -31.027,28.385 -68.348,28.385l-31.798,0ZM1091.01,125.181c-3.358,-1.138 -7.101,-1.505 -10.441,-1.505c-6.018,0 -13.064,0.771 -19.046,6.349c-7.155,6 -8.256,12.33 -8.256,18.679l0,141.981l-37.725,0l0,-204.366l37.725,0l0,22.77c0.403,-2.587 3.027,-8.972 9.009,-14.917c5.945,-5.615 14.935,-10.862 28.734,-10.862l0,41.871ZM928.016,165.896l27.247,0l0,-28.788c0,-7.835 -1.468,-13.432 -5.211,-17.945c-1.908,-1.872 -4.862,-2.973 -8.183,-2.973c-7.12,0 -10.092,4.863 -12,10.441c-1.138,3.027 -1.523,6.385 -1.853,10.477l0,28.788ZM990.419,217.437l0,23.542c-1.174,19.798 -7.138,33.632 -20.569,44.476c-6.752,5.615 -16.055,8.221 -28.403,8.221c-24.239,0 -36.606,-13.487 -42.624,-26.918c-3.303,-7.835 -5.56,-16.789 -5.945,-26.899l0,-102.751c1.119,-19.817 7.45,-34.349 20.917,-45.541c6.349,-5.652 15.725,-8.257 28.074,-8.257c24.238,0 36.55,13.449 42.568,26.55c3.321,7.835 5.578,16.459 5.982,26.165l0,59.376l-62.403,0l0,44.458c0.33,7.854 2.587,13.45 5.981,17.56c1.817,1.89 4.441,2.972 7.872,2.972c7.027,0 10.44,-4.477 11.926,-10.091c1.138,-2.936 1.468,-6.349 1.468,-10.441l0,-22.422l35.156,0ZM827.888,131.181c0,-6 -5.597,-12.349 -11.211,-12.349c-5.615,0 -10.092,5.211 -10.092,12.349l0,114.642c0,7.137 4.477,12.348 10.092,12.348c5.614,0 11.211,-5.211 11.211,-12.348l0,-114.642ZM865.612,290.685l-37.724,0l0,-13.468c-6.349,5.982 -11.964,10.477 -19.046,13.853c-3.725,1.817 -7.486,2.606 -10.807,2.606c-10.533,0 -17.578,-5.982 -22.055,-13.817c-4.899,-7.486 -7.12,-17.559 -7.12,-26.183l0,-130.385c0,-8.569 2.221,-18.679 7.12,-26.532c4.477,-7.449 11.522,-13.449 22.055,-13.449c7.082,0 14.568,4.128 20.146,8.257c3.358,2.605 6.33,5.192 9.707,8.183l0,-83.669l37.724,0l0,274.604ZM708.604,137.108c0.348,-7.835 -1.119,-13.432 -4.881,-17.945c-1.835,-1.872 -4.862,-2.973 -8.202,-2.973c-7.119,0 -10.091,4.863 -11.578,10.441c-1.119,3.027 -1.486,6.385 -1.119,10.477l0,102.751c-0.367,7.854 1.468,13.45 4.862,17.56c1.89,1.89 4.441,2.972 7.835,2.972c7.12,0 10.441,-4.477 11.964,-10.091c1.119,-2.936 1.467,-6.349 1.119,-10.441l0,-102.751ZM744.127,240.979c-1.138,19.798 -7.12,33.632 -20.184,44.476c-6.734,5.615 -16.11,8.221 -28.422,8.221c-24.33,0 -36.256,-13.487 -42.201,-26.918c-3.358,-7.835 -5.615,-16.789 -5.982,-26.899l0,-102.751c1.101,-19.817 7.064,-34.349 20.165,-45.541c6.367,-5.652 15.67,-8.257 28.018,-8.257c24.275,0 36.624,13.449 42.606,26.55c3.357,7.835 5.559,16.459 6,26.165l0,104.954ZM626.512,196.538l0,37.725c-0.348,11.229 -2.642,21.266 -6.715,29.89c-3.358,7.468 -8.642,14.569 -16.11,20.183c-7.413,5.945 -17.541,9.34 -30.954,9.34c-13.468,0 -23.945,-3.395 -31.394,-9.34c-7.487,-5.614 -12.349,-12.715 -15.707,-20.183c-4.091,-8.624 -6.312,-18.661 -6.734,-29.89l0,-161.761c0.422,-10.825 2.643,-20.935 6.734,-29.522c3.358,-7.487 8.22,-14.954 15.707,-20.532c7.449,-5.615 17.926,-9.377 31.394,-9.377c13.413,0 23.541,3.762 30.954,9.377c7.468,5.578 12.752,13.045 16.11,20.532c4.073,8.587 6.367,18.697 6.715,29.522l0,37.725l-37.779,0l0,-37.725c0,-7.486 -1.835,-12.715 -5.945,-17.211c-1.853,-1.853 -5.193,-2.972 -9.339,-2.972c-7.046,0 -10.422,5.211 -12.312,10.073c-1.12,2.991 -1.468,6.367 -1.872,10.11l0,161.761c0.404,7.835 2.624,13.101 6.367,17.174c1.872,1.872 4.495,3.009 7.817,3.009c8.587,0 11.981,-4.477 13.871,-10.091c1.119,-2.624 1.413,-5.982 1.413,-10.092l0,-37.725l37.779,0Z" style="fill:#fff;"/><path d="M252.648,62.864l-42.146,0l0,81.541l42.146,0l0,-81.541ZM196.612,144.919l0,-82.716c0,-3.614 1.358,-6.734 4.037,-9.376c2.587,-2.66 5.761,-3.945 9.376,-3.945l43.1,0c3.597,0 6.661,1.285 9.266,3.945c2.624,2.642 3.909,5.762 3.909,9.376l0,82.716c0,3.669 -1.285,6.807 -3.909,9.412c-2.605,2.624 -5.761,3.945 -9.431,3.945l-42.935,0c-3.725,0 -6.936,-1.321 -9.487,-3.945c-2.605,-2.605 -3.926,-5.743 -3.926,-9.412" style="fill:#fff;"/><path d="M234.036,0c129.302,0 234.072,104.788 234.072,234.054c0,129.247 -104.77,234.054 -234.072,234.054c-129.229,0 -234.036,-104.807 -234.036,-234.054c0,-129.266 104.807,-234.054 234.036,-234.054ZM231.687,12.11c-1.101,0 -2.202,0.018 -3.321,0.055c-120.935,1.743 -218.66,100.477 -218.66,221.926c0,121.559 97.89,220.347 219.119,221.888c-59.963,-1.504 -108.11,-50.623 -108.11,-110.917c0,-61.247 49.688,-110.971 110.972,-110.971c61.229,0 110.972,-49.725 110.972,-110.991c0,-61.265 -49.743,-110.99 -110.972,-110.99ZM268.171,408.864c1.964,0 3.597,-0.679 4.954,-2.018c1.34,-1.358 2,-2.973 2,-4.899l0,-35.743c0,-1.89 -0.66,-3.523 -2,-4.863c-1.358,-1.357 -2.991,-2.018 -4.954,-2.018c-1.871,0 -3.523,0.679 -4.881,2.073c-1.357,1.321 -2,2.954 -2,4.808l0,28.825l-13.853,0l0,-95.412l-34.715,0c-1.908,0 -3.523,0.697 -4.881,2.037c-1.358,1.339 -2,3.009 -2,4.899c0,1.926 0.642,3.541 2,4.899c1.358,1.339 2.973,2.018 4.881,2.018l20.899,0l0,81.559l-21.193,0c-1.945,0 -3.559,0.642 -4.935,1.964c-1.358,1.302 -1.982,2.917 -1.982,4.77c0,1.945 0.624,3.578 1.982,5.009c1.376,1.376 2.99,2.092 4.935,2.092l55.743,0Z" style="fill:#fff;"/><path d="M753.424,333.905l-31.743,0l0,38.495l21.321,0l0,22.183l-21.321,0l0,63.89l-23.009,0l0,-146.733l54.752,0l0,22.165Z" style="fill:#fff;fill-rule:nonzero;"/><path d="M793.708,376.393c0.183,-4.184 -0.642,-7.193 -2.789,-9.56c-1.064,-1.009 -2.771,-1.615 -4.697,-1.615c-4.037,0 -5.725,2.624 -6.624,5.597c-0.606,1.596 -0.844,3.376 -0.606,5.578l0,54.898c-0.238,4.184 0.863,7.193 2.734,9.377c1.083,1.009 2.569,1.614 4.496,1.614c4.055,0 5.963,-2.403 6.844,-5.413c0.642,-1.596 0.825,-3.394 0.642,-5.578l0,-54.898ZM813.928,431.897c-0.66,10.569 -4.11,17.963 -11.486,23.761c-3.872,2.973 -9.193,4.349 -16.22,4.349c-13.835,0 -20.661,-7.138 -24.11,-14.312c-1.872,-4.238 -3.156,-9.027 -3.376,-14.404l0,-54.898c0.679,-10.569 4.036,-18.331 11.559,-24.349c3.578,-2.991 8.899,-4.385 15.927,-4.385c13.835,0 20.88,7.174 24.275,14.183c1.926,4.165 3.211,8.771 3.431,13.963l0,56.092Z" style="fill:#fff;fill-rule:nonzero;"/><path d="M862.287,349.248l21.487,0l0,109.229l-21.487,0l0,-9.211c-0.458,0.201 -1.302,0.99 -2.367,2c-2.568,2.385 -5.559,5.174 -9.376,7.211c-1.945,0.972 -3.853,1.541 -5.779,1.541c-5.762,0 -9.762,-3.174 -12.349,-7.34c-2.532,-4.018 -3.835,-9.394 -3.835,-13.999l0,-89.431l21.56,0l0,86.44c0,4.183 2.532,4.789 5.046,4.789c2.403,0 3.651,-1.211 5.119,-2.606c0.679,-0.55 1.284,-1.578 1.981,-2.587l0,-86.036Z" style="fill:#fff;fill-rule:nonzero;"/><path d="M922.302,458.469l-21.523,0l0,-109.229l21.523,0l0,9.193c0.403,-0.183 1.303,-0.972 2.569,-2.183c2.348,-2.184 5.541,-5.175 9.376,-7.193c1.926,-0.972 3.614,-1.395 5.523,-1.395c5.779,0 9.834,3.211 12.33,7.175c2.605,4.202 3.816,9.596 3.816,14.202l0,89.43l-21.504,0l0,-86.44c0,-4.183 -2.532,-4.825 -5.064,-4.825c-2.331,0 -3.652,1.211 -5.12,2.605c-0.623,0.807 -1.266,1.615 -1.926,2.587l0,86.073Z" style="fill:#fff;fill-rule:nonzero;"/><path d="M1005.42,373.193c0,-3.156 -3.266,-6.569 -6.44,-6.569c-3.193,0 -5.78,2.807 -5.78,6.569l0,61.284c0,3.816 2.587,6.605 5.78,6.605c3.174,0 6.44,-2.789 6.44,-6.605l0,-61.284ZM1026.85,458.477l-21.431,0l0,-7.211c-3.651,3.174 -6.844,5.578 -10.899,7.376c-2.165,1.009 -4.312,1.376 -6.202,1.376c-5.945,0 -10,-3.174 -12.532,-7.34c-2.789,-4.018 -4.11,-9.394 -4.11,-13.999l0,-69.651c0,-4.588 1.321,-10 4.11,-14.184c2.532,-3.982 6.587,-7.174 12.532,-7.174c4.037,0 8.33,2.183 11.486,4.385c1.964,1.413 3.615,2.789 5.615,4.367l0,-44.679l21.431,0l0,146.734Z" style="fill:#fff;fill-rule:nonzero;"/><path d="M1076.5,405.761c-10.422,4.184 -14.954,13.945 -14.954,24.367c0,1.376 0.239,3.762 1.083,5.963c0.862,2.386 2.33,4.184 4.917,4.184c4.844,0 8.954,-2.807 8.954,-6.569l0,-27.945ZM1076.5,375.229c0,-1.816 0,-4.624 -0.642,-6.605c-0.862,-2 -2.587,-3.413 -5.376,-3.413c-3.596,0 -5.064,2.642 -5.725,5.798c-0.202,1.578 -0.385,3.395 -0.385,5.193l0,5.174l-21.523,0l0,-4.569c0,-7.981 3.174,-15.156 8.275,-20.55c5.156,-5.395 12.367,-8.587 20.661,-8.587c7.045,0 13.431,2.624 18.311,6.972c4.881,4.386 7.89,10.569 7.89,17.762l0,67.1c0,9.762 0.679,14.147 1.523,18.973l-21.101,0c-1.908,-2.221 -1.908,-7.395 -1.908,-8.789l-1.504,0c-1.083,1.779 -2.973,4.367 -5.945,6.568c-2.973,2.221 -7.028,3.762 -11.285,3.762c-2.789,0 -7.266,-0.991 -10.642,-4.973c-3.669,-3.779 -6.624,-10.568 -6.624,-21.944c0,-12.165 3.854,-20.954 8.918,-26.973c5.119,-5.981 11.504,-9.761 16.844,-12.367c5.302,-2.587 9.376,-4.385 10.238,-6.587l0,-11.945Z" style="fill:#fff;fill-rule:nonzero;"/><path d="M1137.17,322.327l0,26.917l14.679,0l0,18.165l-14.679,0l0,54.312c0,3.394 0,7.78 0.844,11.376c0.844,3.578 2.569,6.587 5.982,6.587c1.743,0 3.853,-0.183 5.321,-0.422c0.862,-0.183 1.688,-0.183 2.532,-0.367l0,19.743c-0.991,0.184 -2.128,0.606 -3.174,0.807c-2.147,0.404 -4.936,0.569 -8.33,0.569c-12.532,0 -18.477,-5.963 -21.505,-13.559c-2.991,-7.56 -3.174,-16.753 -3.174,-23.156l0,-55.89l-10.863,0l0,-18.165l10.863,0l0,-26.917l21.504,0Z" style="fill:#fff;fill-rule:nonzero;"/><path d="M1163.38,349.248l21.504,0l0,109.229l-21.504,0l0,-109.229ZM1163.38,311.743l21.504,0l0,20.147l-21.504,0l0,-20.147Z" style="fill:#fff;fill-rule:nonzero;"/><path d="M1234.48,376.393c0.22,-4.184 -0.642,-7.193 -2.752,-9.56c-1.064,-1.009 -2.789,-1.615 -4.661,-1.615c-4.073,0 -5.78,2.624 -6.624,5.597c-0.642,1.596 -0.844,3.376 -0.642,5.578l0,54.898c-0.202,4.184 0.881,7.193 2.789,9.377c1.083,1.009 2.551,1.614 4.477,1.614c4.037,0 5.982,-2.403 6.771,-5.413c0.642,-1.596 0.862,-3.394 0.642,-5.578l0,-54.898ZM1254.74,431.897c-0.642,10.569 -4.055,17.963 -11.523,23.761c-3.761,2.973 -9.119,4.349 -16.147,4.349c-13.816,0 -20.679,-7.138 -24.11,-14.312c-1.871,-4.238 -3.192,-9.027 -3.394,-14.404l0,-54.898c0.66,-10.569 4.036,-18.331 11.541,-24.349c3.615,-2.991 8.917,-4.385 15.963,-4.385c13.817,0 20.844,7.174 24.239,14.183c2,4.165 3.229,8.771 3.431,13.963l0,56.092Z" style="fill:#fff;fill-rule:nonzero;"/><path d="M1290.92,458.469l-21.522,0l0,-109.229l21.522,0l0,9.193c0.441,-0.183 1.322,-0.972 2.533,-2.183c2.385,-2.184 5.559,-5.175 9.412,-7.193c1.909,-0.972 3.652,-1.395 5.523,-1.395c5.78,0 9.798,3.211 12.404,7.175c2.514,4.202 3.798,9.596 3.798,14.202l0,89.43l-21.541,0l0,-86.44c0,-4.183 -2.569,-4.825 -5.046,-4.825c-2.385,0 -3.688,1.211 -5.156,2.605c-0.605,0.807 -1.266,1.615 -1.927,2.587l0,86.073Z" style="fill:#fff;fill-rule:nonzero;"/></g></svg>