<?xml version="1.0" encoding="UTF-8" standalone="no"?><!DOCTYPE svg PUBLIC "-//W3C//DTD SVG 1.1//EN" "http://www.w3.org/Graphics/SVG/1.1/DTD/svg11.dtd"><svg width="100%" height="100%" viewBox="0 0 128 128" version="1.1" xmlns="http://www.w3.org/2000/svg" xmlns:xlink="http://www.w3.org/1999/xlink" xml:space="preserve" style="fill-rule:evenodd;clip-rule:evenodd;stroke-linejoin:round;stroke-miterlimit:1.41421;"><g id="_833871744_"><circle id="circle13" cx="63.876" cy="38" r="29.419" style="fill:#fefefe;"/><path id="path15" d="M64,8c16.569,0 30,13.431 30,30c0,16.569 -13.431,30 -30,30c-16.569,0 -30,-13.431 -30,-30c0,-16.569 13.431,-30 30,-30ZM63.697,9.552c-0.14,0 -0.281,0.003 -0.421,0.006c-15.514,0.224 -28.033,12.881 -28.033,28.445c0,15.583 12.548,28.249 28.086,28.445c-7.683,-0.194 -13.857,-6.491 -13.857,-14.22c0,-7.852 6.373,-14.225 14.225,-14.225c7.852,0 14.225,-6.373 14.225,-14.226c0,-7.852 -6.373,-14.225 -14.225,-14.225l0,0Z" style="fill:#000;"/><path id="path17" d="M59.207,26.575l0,-10.605c0,-0.463 0.168,-0.864 0.508,-1.201c0.336,-0.337 0.738,-0.508 1.204,-0.508l5.528,0c0.458,0 0.853,0.168 1.187,0.508c0.334,0.337 0.5,0.738 0.5,1.201l0,10.605c0,0.472 -0.169,0.873 -0.5,1.207c-0.334,0.334 -0.738,0.5 -1.209,0.5l-5.506,0c-0.477,0 -0.884,-0.166 -1.216,-0.5c-0.331,-0.334 -0.493,-0.735 -0.493,-1.207l-0.003,0l0,0ZM66.383,26.511l0,-10.454l-5.403,0l0,10.454l5.403,0Z" style="fill:#000;"/><path id="path19" d="M61.227,58.635l2.722,0l0,-10.454l-2.677,0c-0.247,0 -0.454,-0.087 -0.628,-0.258c-0.174,-0.171 -0.259,-0.381 -0.259,-0.628c0,-0.244 0.087,-0.455 0.259,-0.626c0.171,-0.171 0.381,-0.258 0.628,-0.258l4.451,0l0,12.227l1.774,0l0,-3.69c0,-0.239 0.087,-0.447 0.258,-0.623c0.171,-0.177 0.382,-0.264 0.626,-0.264c0.247,0 0.457,0.087 0.628,0.258c0.172,0.174 0.259,0.382 0.259,0.629l0,4.577c0,0.247 -0.087,0.457 -0.259,0.631c-0.171,0.171 -0.379,0.256 -0.628,0.256l-7.154,0c-0.247,0 -0.454,-0.09 -0.626,-0.267c-0.173,-0.18 -0.258,-0.393 -0.258,-0.64c0,-0.238 0.087,-0.443 0.258,-0.614c0.172,-0.169 0.382,-0.253 0.626,-0.253l0,-0.003l0,0Z" style="fill:#fff;"/></g><path d="M31.232,79.104l0,-7.104l19.968,0l0,7.104l-6.528,0l0,39.936l-6.912,0l0,-39.936l-6.528,0Z" style="fill:#000;fill-rule:nonzero;"/><path d="M64.832,92.352c0,-0.576 0,-1.472 -0.192,-2.112c-0.256,-0.64 -0.768,-1.088 -1.6,-1.088c-1.088,0 -1.536,0.832 -1.728,1.856c-0.064,0.512 -0.128,1.088 -0.128,1.664c0,0.576 0,1.152 0,1.664l-6.464,0l0,-1.472c0,-2.56 0.96,-4.864 2.496,-6.592c1.536,-1.728 3.712,-2.752 6.208,-2.752c2.112,0 4.032,0.832 5.504,2.24c1.472,1.408 2.368,3.392 2.368,5.696l0,21.504c0,3.136 0.192,4.544 0.448,6.08l-6.336,0c-0.576,-0.704 -0.576,-2.368 -0.576,-2.816l-0.448,0c-0.32,0.576 -0.896,1.408 -1.792,2.112c-0.896,0.704 -2.112,1.216 -3.392,1.216c-0.832,0 -2.176,-0.32 -3.2,-1.6c-1.088,-1.216 -1.984,-3.392 -1.984,-7.04c0,-3.904 1.152,-6.72 2.688,-8.64c1.536,-1.92 3.456,-3.136 5.056,-3.968c1.6,-0.832 2.816,-1.408 3.072,-2.112l0,-3.84ZM64.832,102.144c-3.136,1.344 -4.48,4.48 -4.48,7.808c0,0.448 0.064,1.216 0.32,1.92c0.256,0.768 0.704,1.344 1.472,1.344c1.472,0 2.688,-0.896 2.688,-2.112l0,-8.96Z" style="fill:#000;fill-rule:nonzero;"/><path d="M94.912,110.528c-0.192,3.392 -1.216,5.76 -3.456,7.616c-1.152,0.96 -2.752,1.408 -4.864,1.408c-4.16,0 -6.208,-2.304 -7.232,-4.608c-0.576,-1.344 -0.96,-2.88 -1.024,-4.608l0,-17.6c0.192,-3.392 1.216,-5.888 3.456,-7.808c1.088,-0.96 2.688,-1.408 4.8,-1.408c4.16,0 6.272,2.304 7.296,4.544c0.576,1.344 0.96,2.816 1.024,4.48l0,17.984ZM88.832,92.736c0.064,-1.344 -0.192,-2.304 -0.832,-3.072c-0.32,-0.32 -0.832,-0.512 -1.408,-0.512c-1.216,0 -1.728,0.832 -1.984,1.792c-0.192,0.512 -0.256,1.088 -0.192,1.792l0,17.6c-0.064,1.344 0.256,2.304 0.832,3.008c0.32,0.32 0.768,0.512 1.344,0.512c1.216,0 1.792,-0.768 2.048,-1.728c0.192,-0.512 0.256,-1.088 0.192,-1.792l0,-17.6Z" style="fill:#000;fill-rule:nonzero;"/></svg>